<svg xmlns="http://www.w3.org/2000/svg" xmlns:xlink="http://www.w3.org/1999/xlink" xmlns:lucid="lucid" width="1577.33" height="600"><g transform="translate(-91.33333333333348 -380)" lucid:page-tab-id="0_0"><path d="M111.33 400h360v240h-360z" stroke="#000" stroke-width="2" fill="#fff"/><path d="M111.33 438h360m-360 101h360" stroke="#000" stroke-width="2" fill="none"/><use xlink:href="#a" transform="matrix(1,0,0,1,119.33333333333348,400) translate(149.075 22.6)"/><path d="M671.33 400h360v240h-360z" stroke="#000" stroke-width="2" fill="#fff"/><path d="M671.33 438h360m-360 101h360" stroke="#000" stroke-width="2" fill="none"/><use xlink:href="#b" transform="matrix(1,0,0,1,679.3333333333335,400) translate(142.525 22.6)"/><use xlink:href="#c" transform="matrix(1,0,0,1,683.3333333333335,546.8000000000001) translate(0 46.6)"/><use xlink:href="#d" transform="matrix(1,0,0,1,683.3333333333335,546.8000000000001) translate(15.5 46.6)"/><path d="M1168.67 400h360v240h-360z" stroke="#000" stroke-width="2" fill="#fff"/><path d="M1168.67 459h360" stroke="#000" stroke-width="2" fill="none"/><use xlink:href="#e" transform="matrix(1,0,0,1,1176.6666666666665,400) translate(113.57499999999999 22.799999999999997)"/><use xlink:href="#f" transform="matrix(1,0,0,1,1176.6666666666665,400) translate(128.1 44.4)"/><use xlink:href="#c" transform="matrix(1,0,0,1,1180.6666666666665,467.2) translate(0 75.3)"/><use xlink:href="#g" transform="matrix(1,0,0,1,1180.6666666666665,467.2) translate(15.5 75.3)"/><use xlink:href="#c" transform="matrix(1,0,0,1,1180.6666666666665,467.2) translate(0 96.9)"/><use xlink:href="#h" transform="matrix(1,0,0,1,1180.6666666666665,467.2) translate(15.5 96.9)"/><path d="M671.33 720h360v240h-360z" stroke="#000" stroke-width="2" fill="#fff"/><path d="M671.33 758h360m-360 101h360" stroke="#000" stroke-width="2" fill="none"/><use xlink:href="#i" transform="matrix(1,0,0,1,679.3333333333335,720) translate(136.575 22.6)"/><use xlink:href="#c" transform="matrix(1,0,0,1,683.3333333333335,866.8000000000001) translate(0 46.6)"/><use xlink:href="#j" transform="matrix(1,0,0,1,683.3333333333335,866.8000000000001) translate(15.5 46.6)"/><path d="M1168.67 720h360v240h-360z" stroke="#000" stroke-width="2" fill="#fff"/><path d="M1168.67 758h360m-360 78h360" stroke="#000" stroke-width="2" fill="none"/><use xlink:href="#k" transform="matrix(1,0,0,1,1176.6666666666665,720) translate(94.125 22.6)"/><use xlink:href="#l" transform="matrix(1,0,0,1,1180.6666666666665,765.6) translate(0 35.1)"/><use xlink:href="#m" transform="matrix(1,0,0,1,1180.6666666666665,765.6) translate(10.95 35.1)"/><use xlink:href="#c" transform="matrix(1,0,0,1,1180.6666666666665,844.2181818181818) translate(0 46.8)"/><use xlink:href="#g" transform="matrix(1,0,0,1,1180.6666666666665,844.2181818181818) translate(15.5 46.8)"/><use xlink:href="#c" transform="matrix(1,0,0,1,1180.6666666666665,844.2181818181818) translate(0 68.4)"/><use xlink:href="#h" transform="matrix(1,0,0,1,1180.6666666666665,844.2181818181818) translate(15.5 68.4)"/><path d="M1408.67 840h216l24 24v96h-240z" stroke="#000" stroke-width="2" fill="#fff"/><path d="M1624.67 840l24 24-19.2-4.8z" stroke="#000" stroke-width="2" fill="#b3b3b3"/><use xlink:href="#n" transform="matrix(1,0,0,1,1408.6666666666665,840) translate(5.01 29.4)"/><use xlink:href="#o" transform="matrix(1,0,0,1,1408.6666666666665,840) translate(56.910000000000004 29.4)"/><use xlink:href="#g" transform="matrix(1,0,0,1,1408.6666666666665,840) translate(94.86000000000001 29.4)"/><use xlink:href="#p" transform="matrix(1,0,0,1,1408.6666666666665,840) translate(5.01 51)"/><use xlink:href="#q" transform="matrix(1,0,0,1,1408.6666666666665,840) translate(36.01 72.60000000000001)"/><use xlink:href="#r" transform="matrix(1,0,0,1,1408.6666666666665,840) translate(5.01 94.20000000000002)"/><path d="M1407.67 900l-120.34-13.33" fill="none"/><path d="M1408.67 900c0 .55-.45 1-1 1-.56 0-1-.45-1-1s.44-1 1-1c.55 0 1 .45 1 1zm-8.03-.9c0 .56-.44 1-1 1-.55 0-1-.44-1-1 0-.54.45-1 1-1 .56 0 1 .46 1 1zm-8.02-.88c0 .55-.45 1-1 1s-1-.45-1-1 .45-1 1-1 1 .45 1 1zm-8.02-.9c0 .57-.45 1-1 1s-1-.43-1-1c0-.54.45-1 1-1s1 .46 1 1zm-8.02-.88c0 .56-.45 1-1 1s-1-.44-1-1c0-.55.45-1 1-1s1 .45 1 1zm-8.02-.88c0 .55-.45 1-1 1-.56 0-1-.45-1-1 0-.56.44-1 1-1 .55 0 1 .44 1 1zm-8.03-.9c0 .56-.44 1-1 1-.55 0-1-.44-1-1 0-.55.45-1 1-1 .56 0 1 .45 1 1zm-8.02-.88c0 .55-.44 1-1 1-.54 0-1-.45-1-1s.46-1 1-1c.56 0 1 .45 1 1zm-8-.9c0 .56-.46 1-1 1-.56 0-1-.44-1-1 0-.54.44-1 1-1 .54 0 1 .46 1 1zm-8.03-.88c0 .55-.45 1-1 1-.56 0-1-.45-1-1s.44-1 1-1c.55 0 1 .45 1 1zm-8.03-.9c0 .56-.44 1-1 1-.55 0-1-.44-1-1 0-.54.45-1 1-1 .56 0 1 .46 1 1zm-8.02-.88c0 .55-.45 1-1 1s-1-.45-1-1 .45-1 1-1 1 .45 1 1zm-8.02-.9c0 .57-.45 1-1 1s-1-.43-1-1c0-.54.45-1 1-1s1 .46 1 1zm-8.02-.88c0 .56-.45 1-1 1s-1-.44-1-1c0-.55.45-1 1-1s1 .45 1 1zm-8.02-.88c0 .55-.45 1-1 1-.56 0-1-.45-1-1 0-.56.44-1 1-1 .55 0 1 .44 1 1zm-8.03-.9c0 .56-.44 1-1 1-.55 0-1-.44-1-1 0-.55.45-1 1-1 .56 0 1 .45 1 1z"/><path d="M1408.67 899.1v2.02l-1.1-.13.2-2z"/><path d="M1287.33 886.67l-2.98-.33" stroke="#000" stroke-width="2" fill="none"/><path d="M1348.67 719v-59.76" fill="none"/><path d="M1349.67 719c0 .55-.45 1-1 1-.56 0-1-.45-1-1s.44-1 1-1c.55 0 1 .45 1 1zm0-8.54c0 .55-.45 1-1 1-.56 0-1-.45-1-1s.44-1 1-1c.55 0 1 .45 1 1zm0-8.54c0 .56-.45 1-1 1-.56 0-1-.44-1-1 0-.55.44-1 1-1 .55 0 1 .45 1 1zm0-8.53c0 .54-.45 1-1 1-.56 0-1-.46-1-1 0-.57.44-1 1-1 .55 0 1 .43 1 1zm0-8.55c0 .55-.45 1-1 1-.56 0-1-.45-1-1s.44-1 1-1c.55 0 1 .45 1 1zm0-8.54c0 .56-.45 1-1 1-.56 0-1-.44-1-1 0-.54.44-1 1-1 .55 0 1 .46 1 1zm0-8.53c0 .56-.45 1-1 1-.56 0-1-.44-1-1 0-.55.44-1 1-1 .55 0 1 .45 1 1zm0-8.53c0 .55-.45 1-1 1-.56 0-1-.45-1-1 0-.56.44-1 1-1 .55 0 1 .44 1 1z"/><path d="M1349.67 720h-2v-1h2z"/><path d="M1353.3 658.5h-9.27l4.64-14.26z" fill="#fff"/><path d="M1354.68 659.5h-12.03l6.02-18.5zm-9.27-2h6.53l-3.26-10.03zM1267 679v21.76h-2V681H834.63v-2zm-505.32 0v2h-370v-40h2v38zM393.67 641h-2v-1h2zM1266 715.76l-4.64-14.26h9.28z"/><path d="M1266 719l-6-18.5h12zm-3.26-16.5l3.26 10.03 3.26-10.03z"/><use xlink:href="#s" transform="matrix(1,0,0,1,761.6795430322409,669.2) translate(0 14.4)"/><path d="M345.67 792.33h127.85v2H343.67V641h2zm306.43 0v2H546.47v-2zM345.67 641h-2v-1h2zM667.1 793.33l-14.27 4.64v-9.27z"/><path d="M670.33 793.33l-18.5 6.02v-12.03zm-16.5 3.26l10.03-3.27-10.03-3.26z"/><use xlink:href="#s" transform="matrix(1,0,0,1,473.5250000000001,782.5333333333334) translate(0 14.4)"/><path d="M534.86 602.33h-62.53v-2h62.53zm117.24 0h-44.3v-2h44.3zM472.33 602.33h-1v-2h1zM667.1 601.33l-14.27 4.64v-9.27z"/><path d="M670.33 601.33l-18.5 6.02v-12.03zm-16.5 3.26l10.03-3.27-10.03-3.26z"/><use xlink:href="#s" transform="matrix(1,0,0,1,534.8583333333335,590.5333333333333) translate(0 14.4)"/><path d="M517.9 565h-45.57v-2h45.58zm134.2 0h-27.34v-2h27.34zM472.33 565h-1v-2h1zM667.1 564l-14.27 4.64v-9.28z"/><path d="M670.33 564l-18.5 6v-12zm-16.5 3.26l10.03-3.26-10.03-3.26z"/><g><use xlink:href="#t" transform="matrix(1,0,0,1,517.9083333333335,553.2) translate(0 14.4)"/></g><path d="M1082.97 791.67h-32.4v-2h32.4zm84.7 0h-36.75v-2h36.75zM1168.67 791.67h-1v-2h1zM1049.84 795.3l-14.27-4.63 14.27-4.64z"/><path d="M1050.84 796.68l-18.5-6 18.5-6.03zm-12.03-6l10.04 3.25v-6.52z"/><g><use xlink:href="#u" transform="matrix(1,0,0,1,1082.965170940171,779.8666666666667) translate(0 14.4)"/></g><path d="M1068.5 562.33h-36.17v-2h36.17zm80.93 0h-17.93v-2h17.93zM1032.33 562.33h-1v-2h1zM1164.43 561.33l-14.27 4.64v-9.27z"/><path d="M1167.67 561.33l-18.5 6.02v-12.03zm-16.5 3.26l10.02-3.27-10.04-3.26z"/><g><use xlink:href="#v" transform="matrix(1,0,0,1,1068.5,550.5333333333333) translate(0 14.4)"/></g><defs><path d="M212-179c-10-28-35-45-73-45-59 0-87 40-87 99 0 60 29 101 89 101 43 0 62-24 78-52l27 14C228-24 195 4 139 4 59 4 22-46 18-125c-6-104 99-153 187-111 19 9 31 26 39 46" id="w"/><path d="M24 0v-261h32V0H24" id="x"/><path d="M24-231v-30h32v30H24zM24 0v-190h32V0H24" id="y"/><path d="M100-194c63 0 86 42 84 106H49c0 40 14 67 53 68 26 1 43-12 49-29l28 8c-11 28-37 45-77 45C44 4 14-33 15-96c1-61 26-98 85-98zm52 81c6-60-76-77-97-28-3 7-6 17-6 28h103" id="z"/><path d="M117-194c89-4 53 116 60 194h-32v-121c0-31-8-49-39-48C34-167 62-67 57 0H25l-1-190h30c1 10-1 24 2 32 11-22 29-35 61-36" id="A"/><path d="M59-47c-2 24 18 29 38 22v24C64 9 27 4 27-40v-127H5v-23h24l9-43h21v43h35v23H59v120" id="B"/><g id="a"><use transform="matrix(0.05,0,0,0.05,0,0)" xlink:href="#w"/><use transform="matrix(0.05,0,0,0.05,12.950000000000001,0)" xlink:href="#x"/><use transform="matrix(0.05,0,0,0.05,16.900000000000002,0)" xlink:href="#y"/><use transform="matrix(0.05,0,0,0.05,20.85,0)" xlink:href="#z"/><use transform="matrix(0.05,0,0,0.05,30.85,0)" xlink:href="#A"/><use transform="matrix(0.05,0,0,0.05,40.85,0)" xlink:href="#B"/></g><path d="M33 0v-248h34V0H33" id="C"/><path d="M108 0H70L1-190h34L89-25l56-165h34" id="D"/><path d="M100-194c62-1 85 37 85 99 1 63-27 99-86 99S16-35 15-95c0-66 28-99 85-99zM99-20c44 1 53-31 53-75 0-43-8-75-51-75s-53 32-53 75 10 74 51 75" id="E"/><path d="M143 0L79-87 56-68V0H24v-261h32v163l83-92h37l-77 82L181 0h-38" id="F"/><path d="M114-163C36-179 61-72 57 0H25l-1-190h30c1 12-1 29 2 39 6-27 23-49 58-41v29" id="G"/><g id="b"><use transform="matrix(0.05,0,0,0.05,0,0)" xlink:href="#C"/><use transform="matrix(0.05,0,0,0.05,5,0)" xlink:href="#A"/><use transform="matrix(0.05,0,0,0.05,15,0)" xlink:href="#D"/><use transform="matrix(0.05,0,0,0.05,24,0)" xlink:href="#E"/><use transform="matrix(0.05,0,0,0.05,34,0)" xlink:href="#F"/><use transform="matrix(0.05,0,0,0.05,43,0)" xlink:href="#z"/><use transform="matrix(0.05,0,0,0.05,53,0)" xlink:href="#G"/></g><path d="M118-107v75H92v-75H18v-26h74v-75h26v75h74v26h-74" id="H"/><use transform="matrix(0.05,0,0,0.05,0,0)" xlink:href="#H" id="c"/><path d="M135-143c-3-34-86-38-87 0 15 53 115 12 119 90S17 21 10-45l28-5c4 36 97 45 98 0-10-56-113-15-118-90-4-57 82-63 122-42 12 7 21 19 24 35" id="I"/><path d="M210-169c-67 3-38 105-44 169h-31v-121c0-29-5-50-35-48C34-165 62-65 56 0H25l-1-190h30c1 10-1 24 2 32 10-44 99-50 107 0 11-21 27-35 58-36 85-2 47 119 55 194h-31v-121c0-29-5-49-35-48" id="J"/><path d="M141-36C126-15 110 5 73 4 37 3 15-17 15-53c-1-64 63-63 125-63 3-35-9-54-41-54-24 1-41 7-42 31l-33-3c5-37 33-52 76-52 45 0 72 20 72 64v82c-1 20 7 32 28 27v20c-31 9-61-2-59-35zM48-53c0 20 12 33 32 33 41-3 63-29 60-74-43 2-92-5-92 41" id="K"/><path d="M85-194c31 0 48 13 60 33l-1-100h32l1 261h-30c-2-10 0-23-3-31C134-8 116 4 85 4 32 4 16-35 15-94c0-66 23-100 70-100zm9 24c-40 0-46 34-46 75 0 40 6 74 45 74 42 0 51-32 51-76 0-42-9-74-50-73" id="L"/><path d="M87 75C49 33 22-17 22-94c0-76 28-126 65-167h31c-38 41-64 92-64 168S80 34 118 75H87" id="M"/><path d="M96-169c-40 0-48 33-48 73s9 75 48 75c24 0 41-14 43-38l32 2c-6 37-31 61-74 61-59 0-76-41-82-99-10-93 101-131 147-64 4 7 5 14 7 22l-32 3c-4-21-16-35-41-35" id="N"/><path d="M33-154v-36h34v36H33zM33 0v-36h34V0H33" id="O"/><path d="M33-261c38 41 65 92 65 168S71 34 33 75H2C39 34 66-17 66-93S39-220 2-261h31" id="P"/><g id="d"><use transform="matrix(0.05,0,0,0.05,0,0)" xlink:href="#I"/><use transform="matrix(0.05,0,0,0.05,9,0)" xlink:href="#z"/><use transform="matrix(0.05,0,0,0.05,19,0)" xlink:href="#B"/><use transform="matrix(0.05,0,0,0.05,24,0)" xlink:href="#w"/><use transform="matrix(0.05,0,0,0.05,36.95,0)" xlink:href="#E"/><use transform="matrix(0.05,0,0,0.05,46.95,0)" xlink:href="#J"/><use transform="matrix(0.05,0,0,0.05,61.900000000000006,0)" xlink:href="#J"/><use transform="matrix(0.05,0,0,0.05,76.85000000000001,0)" xlink:href="#K"/><use transform="matrix(0.05,0,0,0.05,86.85000000000001,0)" xlink:href="#A"/><use transform="matrix(0.05,0,0,0.05,96.85000000000001,0)" xlink:href="#L"/><use transform="matrix(0.05,0,0,0.05,106.85000000000001,0)" xlink:href="#M"/><use transform="matrix(0.05,0,0,0.05,112.80000000000001,0)" xlink:href="#N"/><use transform="matrix(0.05,0,0,0.05,121.80000000000001,0)" xlink:href="#E"/><use transform="matrix(0.05,0,0,0.05,131.8,0)" xlink:href="#J"/><use transform="matrix(0.05,0,0,0.05,146.75,0)" xlink:href="#J"/><use transform="matrix(0.05,0,0,0.05,161.7,0)" xlink:href="#K"/><use transform="matrix(0.05,0,0,0.05,171.7,0)" xlink:href="#A"/><use transform="matrix(0.05,0,0,0.05,181.7,0)" xlink:href="#L"/><use transform="matrix(0.05,0,0,0.05,191.7,0)" xlink:href="#O"/><use transform="matrix(0.05,0,0,0.05,196.7,0)" xlink:href="#w"/><use transform="matrix(0.05,0,0,0.05,209.64999999999998,0)" xlink:href="#E"/><use transform="matrix(0.05,0,0,0.05,219.64999999999998,0)" xlink:href="#J"/><use transform="matrix(0.05,0,0,0.05,234.59999999999997,0)" xlink:href="#J"/><use transform="matrix(0.05,0,0,0.05,249.54999999999995,0)" xlink:href="#K"/><use transform="matrix(0.05,0,0,0.05,259.54999999999995,0)" xlink:href="#A"/><use transform="matrix(0.05,0,0,0.05,269.54999999999995,0)" xlink:href="#L"/><use transform="matrix(0.05,0,0,0.05,279.54999999999995,0)" xlink:href="#P"/></g><path d="M15-91v-56l181-69v40L49-119l147 57v40" id="Q"/><path d="M25-224v-37h50v37H25zM25 0v-190h50V0H25" id="R"/><path d="M135-194c87-1 58 113 63 194h-50c-7-57 23-157-34-157-59 0-34 97-39 157H25l-1-190h47c2 12-1 28 3 38 12-26 28-41 61-42" id="S"/><path d="M115-3C79 11 28 4 28-45v-112H4v-33h27l15-45h31v45h36v33H77v99c-1 23 16 31 38 25v30" id="T"/><path d="M185-48c-13 30-37 53-82 52C43 2 14-33 14-96s30-98 90-98c62 0 83 45 84 108H66c0 31 8 55 39 56 18 0 30-7 34-22zm-45-69c5-46-57-63-70-21-2 6-4 13-4 21h74" id="U"/><path d="M135-150c-39-12-60 13-60 57V0H25l-1-190h47c2 13-1 29 3 40 6-28 27-53 61-41v41" id="V"/><path d="M121-226c-27-7-43 5-38 36h38v33H83V0H34v-157H6v-33h28c-9-59 32-81 87-68v32" id="W"/><path d="M133-34C117-15 103 5 69 4 32 3 11-16 11-54c-1-60 55-63 116-61 1-26-3-47-28-47-18 1-26 9-28 27l-52-2c7-38 36-58 82-57s74 22 75 68l1 82c-1 14 12 18 25 15v27c-30 8-71 5-69-32zm-48 3c29 0 43-24 42-57-32 0-66-3-65 30 0 17 8 27 23 27" id="X"/><path d="M190-63c-7 42-38 67-86 67-59 0-84-38-90-98-12-110 154-137 174-36l-49 2c-2-19-15-32-35-32-30 0-35 28-38 64-6 74 65 87 74 30" id="Y"/><path d="M15-22v-40l146-57-146-57v-40l181 69v56" id="Z"/><g id="e"><use transform="matrix(0.05,0,0,0.05,0,0)" xlink:href="#Q"/><use transform="matrix(0.05,0,0,0.05,10.5,0)" xlink:href="#Q"/><use transform="matrix(0.05,0,0,0.05,21,0)" xlink:href="#R"/><use transform="matrix(0.05,0,0,0.05,26,0)" xlink:href="#S"/><use transform="matrix(0.05,0,0,0.05,36.95,0)" xlink:href="#T"/><use transform="matrix(0.05,0,0,0.05,42.900000000000006,0)" xlink:href="#U"/><use transform="matrix(0.05,0,0,0.05,52.900000000000006,0)" xlink:href="#V"/><use transform="matrix(0.05,0,0,0.05,59.900000000000006,0)" xlink:href="#W"/><use transform="matrix(0.05,0,0,0.05,65.85000000000001,0)" xlink:href="#X"/><use transform="matrix(0.05,0,0,0.05,75.85000000000001,0)" xlink:href="#Y"/><use transform="matrix(0.05,0,0,0.05,85.85000000000001,0)" xlink:href="#U"/><use transform="matrix(0.05,0,0,0.05,95.85000000000001,0)" xlink:href="#Z"/><use transform="matrix(0.05,0,0,0.05,106.35000000000001,0)" xlink:href="#Z"/></g><path d="M67-125c0 53 21 87 73 88 37 1 54-22 65-47l45 17C233-25 199 4 140 4 58 4 20-42 15-125 8-235 124-281 211-232c18 10 29 29 36 50l-46 12c-8-25-30-41-62-41-52 0-71 34-72 86" id="aa"/><path d="M110-194c64 0 96 36 96 99 0 64-35 99-97 99-61 0-95-36-95-99 0-62 34-99 96-99zm-1 164c35 0 45-28 45-65 0-40-10-65-43-65-34 0-45 26-45 65 0 36 10 65 43 65" id="ab"/><path d="M220-157c-53 9-28 100-34 157h-49v-107c1-27-5-49-29-50C55-147 81-57 75 0H25l-1-190h47c2 12-1 28 3 38 10-53 101-56 108 0 13-22 24-43 59-42 82 1 51 116 57 194h-49v-107c-1-25-5-48-29-50" id="ac"/><path d="M88-194c31-1 46 15 58 34l-1-101h50l1 261h-48c-2-10 0-23-3-31C134-8 116 4 84 4 32 4 16-41 15-95c0-56 19-97 73-99zm17 164c33 0 40-30 41-66 1-37-9-64-41-64s-38 30-39 65c0 43 13 65 39 65" id="ad"/><g id="f"><use transform="matrix(0.05,0,0,0.05,0,0)" xlink:href="#aa"/><use transform="matrix(0.05,0,0,0.05,12.950000000000001,0)" xlink:href="#ab"/><use transform="matrix(0.05,0,0,0.05,23.900000000000002,0)" xlink:href="#ac"/><use transform="matrix(0.05,0,0,0.05,39.900000000000006,0)" xlink:href="#ac"/><use transform="matrix(0.05,0,0,0.05,55.900000000000006,0)" xlink:href="#X"/><use transform="matrix(0.05,0,0,0.05,65.9,0)" xlink:href="#S"/><use transform="matrix(0.05,0,0,0.05,76.85000000000001,0)" xlink:href="#ad"/></g><path d="M141 0L90-78 38 0H4l68-98-65-92h35l48 74 47-74h35l-64 92 68 98h-35" id="ae"/><path d="M84 4C-5 8 30-112 23-190h32v120c0 31 7 50 39 49 72-2 45-101 50-169h31l1 190h-30c-1-10 1-25-2-33-11 22-28 36-60 37" id="af"/><g id="g"><use transform="matrix(0.05,0,0,0.05,0,0)" xlink:href="#z"/><use transform="matrix(0.05,0,0,0.05,10,0)" xlink:href="#ae"/><use transform="matrix(0.05,0,0,0.05,19,0)" xlink:href="#z"/><use transform="matrix(0.05,0,0,0.05,29,0)" xlink:href="#N"/><use transform="matrix(0.05,0,0,0.05,38,0)" xlink:href="#af"/><use transform="matrix(0.05,0,0,0.05,48,0)" xlink:href="#B"/><use transform="matrix(0.05,0,0,0.05,53,0)" xlink:href="#z"/><use transform="matrix(0.05,0,0,0.05,63,0)" xlink:href="#M"/><use transform="matrix(0.05,0,0,0.05,68.95,0)" xlink:href="#P"/></g><g id="h"><use transform="matrix(0.05,0,0,0.05,0,0)" xlink:href="#af"/><use transform="matrix(0.05,0,0,0.05,10,0)" xlink:href="#A"/><use transform="matrix(0.05,0,0,0.05,20,0)" xlink:href="#L"/><use transform="matrix(0.05,0,0,0.05,30,0)" xlink:href="#E"/><use transform="matrix(0.05,0,0,0.05,40,0)" xlink:href="#M"/><use transform="matrix(0.05,0,0,0.05,45.95,0)" xlink:href="#P"/></g><path d="M233-177c-1 41-23 64-60 70L243 0h-38l-65-103H63V0H30v-248c88 3 205-21 203 71zM63-129c60-2 137 13 137-47 0-61-80-42-137-45v92" id="ag"/><g id="i"><use transform="matrix(0.05,0,0,0.05,0,0)" xlink:href="#ag"/><use transform="matrix(0.05,0,0,0.05,12.950000000000001,0)" xlink:href="#z"/><use transform="matrix(0.05,0,0,0.05,22.950000000000003,0)" xlink:href="#N"/><use transform="matrix(0.05,0,0,0.05,31.950000000000003,0)" xlink:href="#z"/><use transform="matrix(0.05,0,0,0.05,41.95,0)" xlink:href="#y"/><use transform="matrix(0.05,0,0,0.05,45.900000000000006,0)" xlink:href="#D"/><use transform="matrix(0.05,0,0,0.05,54.900000000000006,0)" xlink:href="#z"/><use transform="matrix(0.05,0,0,0.05,64.9,0)" xlink:href="#G"/></g><g id="j"><use transform="matrix(0.05,0,0,0.05,0,0)" xlink:href="#K"/><use transform="matrix(0.05,0,0,0.05,10,0)" xlink:href="#N"/><use transform="matrix(0.05,0,0,0.05,19,0)" xlink:href="#B"/><use transform="matrix(0.05,0,0,0.05,24,0)" xlink:href="#y"/><use transform="matrix(0.05,0,0,0.05,27.950000000000003,0)" xlink:href="#E"/><use transform="matrix(0.05,0,0,0.05,37.95,0)" xlink:href="#A"/><use transform="matrix(0.05,0,0,0.05,47.95,0)" xlink:href="#M"/><use transform="matrix(0.05,0,0,0.05,53.900000000000006,0)" xlink:href="#P"/></g><g id="k"><use transform="matrix(0.05,0,0,0.05,0,0)" xlink:href="#w"/><use transform="matrix(0.05,0,0,0.05,12.950000000000001,0)" xlink:href="#E"/><use transform="matrix(0.05,0,0,0.05,22.950000000000003,0)" xlink:href="#A"/><use transform="matrix(0.05,0,0,0.05,32.95,0)" xlink:href="#N"/><use transform="matrix(0.05,0,0,0.05,41.95,0)" xlink:href="#G"/><use transform="matrix(0.05,0,0,0.05,47.900000000000006,0)" xlink:href="#z"/><use transform="matrix(0.05,0,0,0.05,57.900000000000006,0)" xlink:href="#B"/><use transform="matrix(0.05,0,0,0.05,62.900000000000006,0)" xlink:href="#z"/><use transform="matrix(0.05,0,0,0.05,72.9,0)" xlink:href="#w"/><use transform="matrix(0.05,0,0,0.05,85.85000000000001,0)" xlink:href="#E"/><use transform="matrix(0.05,0,0,0.05,95.85000000000001,0)" xlink:href="#J"/><use transform="matrix(0.05,0,0,0.05,110.80000000000001,0)" xlink:href="#J"/><use transform="matrix(0.05,0,0,0.05,125.75,0)" xlink:href="#K"/><use transform="matrix(0.05,0,0,0.05,135.75,0)" xlink:href="#A"/><use transform="matrix(0.05,0,0,0.05,145.75,0)" xlink:href="#L"/></g><path d="M16-82v-28h88v28H16" id="ah"/><use transform="matrix(0.05,0,0,0.05,0,0)" xlink:href="#ah" id="l"/><g id="m"><use transform="matrix(0.05,0,0,0.05,0,0)" xlink:href="#G"/><use transform="matrix(0.05,0,0,0.05,5.95,0)" xlink:href="#z"/><use transform="matrix(0.05,0,0,0.05,15.949999999999998,0)" xlink:href="#N"/><use transform="matrix(0.05,0,0,0.05,24.95,0)" xlink:href="#z"/><use transform="matrix(0.05,0,0,0.05,34.95,0)" xlink:href="#y"/><use transform="matrix(0.05,0,0,0.05,38.900000000000006,0)" xlink:href="#D"/><use transform="matrix(0.05,0,0,0.05,47.900000000000006,0)" xlink:href="#z"/><use transform="matrix(0.05,0,0,0.05,57.900000000000006,0)" xlink:href="#G"/><use transform="matrix(0.05,0,0,0.05,63.85,0)" xlink:href="#O"/><use transform="matrix(0.05,0,0,0.05,68.85000000000001,0)" xlink:href="#ag"/><use transform="matrix(0.05,0,0,0.05,81.80000000000001,0)" xlink:href="#z"/><use transform="matrix(0.05,0,0,0.05,91.80000000000001,0)" xlink:href="#N"/><use transform="matrix(0.05,0,0,0.05,100.80000000000001,0)" xlink:href="#z"/><use transform="matrix(0.05,0,0,0.05,110.80000000000001,0)" xlink:href="#y"/><use transform="matrix(0.05,0,0,0.05,114.75,0)" xlink:href="#D"/><use transform="matrix(0.05,0,0,0.05,123.75,0)" xlink:href="#z"/><use transform="matrix(0.05,0,0,0.05,133.75,0)" xlink:href="#G"/></g><path d="M115-194c55 1 70 41 70 98S169 2 115 4C84 4 66-9 55-30l1 105H24l-1-265h31l2 30c10-21 28-34 59-34zm-8 174c40 0 45-34 45-75s-6-73-45-74c-42 0-51 32-51 76 0 43 10 73 51 73" id="ai"/><path d="M115-194c53 0 69 39 70 98 0 66-23 100-70 100C84 3 66-7 56-30L54 0H23l1-261h32v101c10-23 28-34 59-34zm-8 174c40 0 45-34 45-75 0-40-5-75-45-74-42 0-51 32-51 76 0 43 10 73 51 73" id="aj"/><g id="n"><use transform="matrix(0.05,0,0,0.05,0,0)" xlink:href="#ai"/><use transform="matrix(0.05,0,0,0.05,10,0)" xlink:href="#af"/><use transform="matrix(0.05,0,0,0.05,20,0)" xlink:href="#aj"/><use transform="matrix(0.05,0,0,0.05,30,0)" xlink:href="#x"/><use transform="matrix(0.05,0,0,0.05,33.95,0)" xlink:href="#y"/><use transform="matrix(0.05,0,0,0.05,37.900000000000006,0)" xlink:href="#N"/></g><g id="o"><use transform="matrix(0.05,0,0,0.05,0,0)" xlink:href="#D"/><use transform="matrix(0.05,0,0,0.05,9,0)" xlink:href="#E"/><use transform="matrix(0.05,0,0,0.05,19,0)" xlink:href="#y"/><use transform="matrix(0.05,0,0,0.05,22.95,0)" xlink:href="#L"/></g><path d="M39-94c74 12-11 154 75 146v23c-44 4-70-10-70-52C44-23 55-84 6-82v-22c81 4-7-162 84-157h24v23c-82-15-2 131-75 144" id="ak"/><use transform="matrix(0.05,0,0,0.05,0,0)" xlink:href="#ak" id="p"/><path d="M33 0v-38h34V0H33" id="al"/><path d="M68-36c1 33-1 63-14 82H32c9-13 17-26 17-46H33v-36h35zM33-154v-36h35v36H33" id="am"/><g id="q"><use transform="matrix(0.05,0,0,0.05,0,0)" xlink:href="#G"/><use transform="matrix(0.05,0,0,0.05,5.95,0)" xlink:href="#z"/><use transform="matrix(0.05,0,0,0.05,15.949999999999998,0)" xlink:href="#N"/><use transform="matrix(0.05,0,0,0.05,24.95,0)" xlink:href="#z"/><use transform="matrix(0.05,0,0,0.05,34.95,0)" xlink:href="#y"/><use transform="matrix(0.05,0,0,0.05,38.900000000000006,0)" xlink:href="#D"/><use transform="matrix(0.05,0,0,0.05,47.900000000000006,0)" xlink:href="#z"/><use transform="matrix(0.05,0,0,0.05,57.900000000000006,0)" xlink:href="#G"/><use transform="matrix(0.05,0,0,0.05,62.85,0)" xlink:href="#al"/><use transform="matrix(0.05,0,0,0.05,67.85000000000001,0)" xlink:href="#K"/><use transform="matrix(0.05,0,0,0.05,77.85000000000001,0)" xlink:href="#N"/><use transform="matrix(0.05,0,0,0.05,86.85000000000001,0)" xlink:href="#B"/><use transform="matrix(0.05,0,0,0.05,91.85000000000001,0)" xlink:href="#y"/><use transform="matrix(0.05,0,0,0.05,95.80000000000001,0)" xlink:href="#E"/><use transform="matrix(0.05,0,0,0.05,105.80000000000001,0)" xlink:href="#A"/><use transform="matrix(0.05,0,0,0.05,115.80000000000001,0)" xlink:href="#M"/><use transform="matrix(0.05,0,0,0.05,121.75,0)" xlink:href="#P"/><use transform="matrix(0.05,0,0,0.05,127.7,0)" xlink:href="#am"/></g><path d="M76-40C78 24 84 88 6 75V52C86 64 9-79 80-94c-40-6-34-59-34-106 1-29-11-41-40-38v-23c44-4 70 10 70 52 0 47-12 108 38 105v22c-26 1-39 14-38 42" id="an"/><use transform="matrix(0.05,0,0,0.05,0,0)" xlink:href="#an" id="r"/><g id="s"><use transform="matrix(0.05,0,0,0.05,0,0)" xlink:href="#N"/><use transform="matrix(0.05,0,0,0.05,9,0)" xlink:href="#E"/><use transform="matrix(0.05,0,0,0.05,19,0)" xlink:href="#A"/><use transform="matrix(0.05,0,0,0.05,29,0)" xlink:href="#I"/><use transform="matrix(0.05,0,0,0.05,38,0)" xlink:href="#B"/><use transform="matrix(0.05,0,0,0.05,43,0)" xlink:href="#G"/><use transform="matrix(0.05,0,0,0.05,48.95,0)" xlink:href="#af"/><use transform="matrix(0.05,0,0,0.05,58.95,0)" xlink:href="#N"/><use transform="matrix(0.05,0,0,0.05,67.95,0)" xlink:href="#B"/></g><g id="t"><use transform="matrix(0.05,0,0,0.05,0,0)" xlink:href="#I"/><use transform="matrix(0.05,0,0,0.05,9,0)" xlink:href="#z"/><use transform="matrix(0.05,0,0,0.05,19,0)" xlink:href="#B"/><use transform="matrix(0.05,0,0,0.05,24,0)" xlink:href="#w"/><use transform="matrix(0.05,0,0,0.05,36.95,0)" xlink:href="#E"/><use transform="matrix(0.05,0,0,0.05,46.95,0)" xlink:href="#J"/><use transform="matrix(0.05,0,0,0.05,61.900000000000006,0)" xlink:href="#J"/><use transform="matrix(0.05,0,0,0.05,76.85000000000001,0)" xlink:href="#K"/><use transform="matrix(0.05,0,0,0.05,86.85000000000001,0)" xlink:href="#A"/><use transform="matrix(0.05,0,0,0.05,96.85000000000001,0)" xlink:href="#L"/></g><g id="u"><use transform="matrix(0.05,0,0,0.05,0,0)" xlink:href="#K"/><use transform="matrix(0.05,0,0,0.05,10,0)" xlink:href="#N"/><use transform="matrix(0.05,0,0,0.05,19,0)" xlink:href="#B"/><use transform="matrix(0.05,0,0,0.05,24,0)" xlink:href="#y"/><use transform="matrix(0.05,0,0,0.05,27.950000000000003,0)" xlink:href="#E"/><use transform="matrix(0.05,0,0,0.05,37.95,0)" xlink:href="#A"/></g><g id="v"><use transform="matrix(0.05,0,0,0.05,0,0)" xlink:href="#z"/><use transform="matrix(0.05,0,0,0.05,10,0)" xlink:href="#ae"/><use transform="matrix(0.05,0,0,0.05,19,0)" xlink:href="#z"/><use transform="matrix(0.05,0,0,0.05,29,0)" xlink:href="#N"/><use transform="matrix(0.05,0,0,0.05,38,0)" xlink:href="#af"/><use transform="matrix(0.05,0,0,0.05,48,0)" xlink:href="#B"/><use transform="matrix(0.05,0,0,0.05,53,0)" xlink:href="#z"/></g></defs></g></svg>